<svg xmlns="http://www.w3.org/2000/svg" height="20" viewBox="0 96 960 960" width="20"><path d="M480 642.652 290.826 831.826Q277.152 845.5 258 845t-32.826-14.174Q211.5 817.152 211.5 797.5t13.674-33.326L413.348 576 224.174 386.826Q210.5 373.152 211 353.5t14.174-33.326Q238.848 306.5 258.5 306.5t33.326 13.674L480 509.348l189.174-189.174Q682.848 306.5 702.5 306.5t33.326 13.674Q749.5 333.848 749.5 353.5t-13.674 33.326L546.652 576l189.174 189.174Q749.5 778.848 749.5 798t-13.674 32.826Q722.152 844.5 702.5 844.5t-33.326-13.674L480 642.652Z"/></svg>