<svg xmlns="http://www.w3.org/2000/svg" height="20" viewBox="0 96 960 960" width="20"><path d="M260 672h72q2-58 43-99t100-41q38 0 70 19t51 49h-68v72h192V480h-72v68q-29-40-74-64t-99-24q-89 0-151 62t-64 150Zm220 288q-79 0-149-30t-122.5-82.5Q156 795 126 725T96 576q0-80 30-149.5t82.5-122Q261 252 331 222t149-30q80 0 149.5 30t122 82.5Q804 357 834 426.5T864 576q0 79-30 149t-82.5 122.5Q699 900 629.5 930T480 960Zm0-72q130 0 221-91t91-221q0-130-91-221t-221-91q-130 0-221 91t-91 221q0 130 91 221t221 91Zm0-312Z"/></svg>