<svg xmlns="http://www.w3.org/2000/svg" height="20" viewBox="0 96 960 960" width="20"><path d="M360.065 984.131 344.587 855.5q-8.087-5.282-18.533-11.326-10.445-6.043-19.011-10.848l-119.391 50.196L67.478 675.609l101.913-77.435q.239-5.044.239-11.087v-22.174q0-6.043-.239-11.087L67.478 476.391l120.174-207.435 119.87 49.957q8.565-4.804 18.652-10.728 10.087-5.924 18.413-11.207l15.478-129.109h239.87l15.478 129.109q8.087 5.283 18.533 11.207 10.445 5.924 19.011 10.728l119.391-49.957 120.174 207.435-101.152 77.435q-.239 5.044-.239 11.087V576q0 5.043-.12 11.087-.12 6.043.359 11.087l101.152 77.435-120.413 207.913-119.631-50.196q-8.565 4.805-18.652 10.848-10.087 6.044-18.413 11.326l-15.478 128.631h-239.87ZM479.283 719q59 0 101-42t42-101q0-59-42-101t-101-42q-58.761 0-100.881 42-42.119 42-42.119 101t42.119 101q42.12 42 100.881 42Zm0-84q-24 0-41.5-17.5t-17.5-41.5q0-24 17.5-41.5t41.5-17.5q24 0 41.5 17.5t17.5 41.5q0 24-17.5 41.5t-41.5 17.5ZM481 576Zm-38.37 313.13h74.5l12.24-103.521q29.239-8 56.836-24.12 27.598-16.119 49.598-39.076l96.761 41 37.131-61.696-84.283-64.521q5-14.479 7.239-29.718T694.891 576q0-14.239-2.239-28.978t-6.239-31.218l84.761-65.521-37.609-61.696-96.522 42q-23-23.717-50.097-39.576-27.098-15.859-56.576-23.62l-13-104.521h-74.979L429.87 367.152q-29.718 7.761-56.935 23.62-27.218 15.858-49.457 38.815l-96.282-41-37.37 61.696 83.044 64.282q-4 16.478-6.24 31.837-2.239 15.359-2.239 29.598 0 14.239 2.239 29.217 2.24 14.979 6.24 31.457l-83.044 65.043 37.37 61.696 96.282-40.761q22.239 22.478 49.576 38.337 27.337 15.859 56.816 23.859l12.76 104.282Z"/></svg>